<?xml version="1.0" encoding="UTF-8" standalone="no"?> <!DOCTYPE svg PUBLIC "-//W3C//DTD SVG 1.1//EN" "http://www.w3.org/Graphics/SVG/1.1/DTD/svg11.dtd"> <svg width="504pt" height="211pt" viewBox="0.00 0.00 504.00 211.00" xmlns="http://www.w3.org/2000/svg" xmlns:xlink="http://www.w3.org/1999/xlink"> <g id="graph0" class="graph" transform="scale(1 1) rotate(0) translate(4 207)"> <title>dependencies</title> <polygon fill="#ffffff" stroke="transparent" points="-4,4 -4,-207 500,-207 500,4 -4,4"/> <text text-anchor="start" x="227.0091" y="-42.4" font-family="sans-serif" font-weight="bold" font-size="14.00" fill="#000000">Legend</text> <polygon fill="#ffffb3" stroke="transparent" points="14,-10 14,-30 34,-30 34,-10 14,-10"/> <text text-anchor="start" x="37.629" y="-15.4" font-family="sans-serif" font-size="14.00" fill="#000000"> Declarations</text> <polygon fill="#8dd3c7" stroke="transparent" points="127,-10 127,-30 147,-30 147,-10 127,-10"/> <text text-anchor="start" x="150.7251" y="-15.4" font-family="sans-serif" font-size="14.00" fill="#000000"> Module</text> <polygon fill="#80b1d3" stroke="transparent" points="213,-10 213,-30 233,-30 233,-10 213,-10"/> <text text-anchor="start" x="236.7812" y="-15.4" font-family="sans-serif" font-size="14.00" fill="#000000"> Bootstrap</text> <polygon fill="#fdb462" stroke="transparent" points="310,-10 310,-30 330,-30 330,-10 310,-10"/> <text text-anchor="start" x="333.6732" y="-15.4" font-family="sans-serif" font-size="14.00" fill="#000000"> Providers</text> <polygon fill="#fb8072" stroke="transparent" points="406,-10 406,-30 426,-30 426,-10 406,-10"/> <text text-anchor="start" x="429.7258" y="-15.4" font-family="sans-serif" font-size="14.00" fill="#000000"> Exports</text> <g id="clust1" class="cluster"> <title>cluster_NgForageModule</title> <polygon fill="none" stroke="#000000" stroke-dasharray="1,5" points="99.5,-70 99.5,-195 396.5,-195 396.5,-70 99.5,-70"/> </g> <g id="clust6" class="cluster"> <title>cluster_NgForageModule_providers</title> <polygon fill="none" stroke="#000000" points="107.5,-78 107.5,-130 388.5,-130 388.5,-78 107.5,-78"/> </g> <g id="node1" class="node"> <title>NgForage</title> <ellipse fill="#fdb462" stroke="#000000" cx="330.5" cy="-104" rx="49.8001" ry="18"/> <text text-anchor="middle" x="330.5" y="-99.8" font-family="Times,serif" font-size="14.00" fill="#000000">NgForage</text> </g> <g id="node3" class="node"> <title>NgForageModule</title> <polygon fill="#8dd3c7" stroke="#000000" points="317.0298,-187 314.0298,-191 293.0298,-191 290.0298,-187 201.9702,-187 201.9702,-151 317.0298,-151 317.0298,-187"/> <text text-anchor="middle" x="259.5" y="-164.8" font-family="Times,serif" font-size="14.00" fill="#000000">NgForageModule</text> </g> <g id="edge1" class="edge"> <title>NgForage->NgForageModule</title> <path fill="none" stroke="#000000" d="M299.0573,-118.104C299.0573,-118.104 299.0573,-140.7209 299.0573,-140.7209"/> <polygon fill="#000000" stroke="#000000" points="295.5574,-140.7209 299.0573,-150.7209 302.5574,-140.7209 295.5574,-140.7209"/> </g> <g id="node2" class="node"> <title>NgForageCache</title> <ellipse fill="#fdb462" stroke="#000000" cx="189.5" cy="-104" rx="73.5579" ry="18"/> <text text-anchor="middle" x="189.5" y="-99.8" font-family="Times,serif" font-size="14.00" fill="#000000">NgForageCache</text> </g> <g id="edge2" class="edge"> <title>NgForageCache->NgForageModule</title> <path fill="none" stroke="#000000" d="M232.5071,-118.7495C232.5071,-118.7495 232.5071,-140.5882 232.5071,-140.5882"/> <polygon fill="#000000" stroke="#000000" points="229.0072,-140.5881 232.5071,-150.5882 236.0072,-140.5882 229.0072,-140.5881"/> </g> </g> </svg> 